<svg width="161" height="35" viewBox="0 0 161 35" fill="none" xmlns="http://www.w3.org/2000/svg">
<g clip-path="url(#clip0_5_9)">
<path d="M6.959 2.62241C6.959 3.64205 6.11737 4.45557 5.06888 4.45557C4.02039 4.45557 3.17593 3.6393 3.17593 2.62241C3.17593 1.60551 4.01756 0.789246 5.06888 0.789246C6.12021 0.789246 6.959 1.60276 6.959 2.62241ZM12.8872 2.62241C12.8872 3.64205 12.0456 4.45557 10.9943 4.45557C9.94296 4.45557 9.10133 3.6393 9.10133 2.62241C9.10133 1.60551 9.94296 0.789246 10.9943 0.789246C12.0456 0.789246 12.8872 1.60276 12.8872 2.62241ZM18.8353 2.62241C18.8353 3.64205 17.9937 4.45557 16.9452 4.45557C15.8967 4.45557 15.0522 3.6393 15.0522 2.62241C15.0522 1.60551 15.8939 0.789246 16.9452 0.789246C17.9965 0.789246 18.8353 1.60276 18.8353 2.62241ZM24.7607 2.62241C24.7607 3.64205 23.9191 4.45557 22.8678 4.45557C21.8164 4.45557 20.9748 3.6393 20.9748 2.62241C20.9748 1.60551 21.8164 0.789246 22.8678 0.789246C23.9191 0.789246 24.7607 1.60276 24.7607 2.62241ZM2.84154 7.12972H25.0554C26.2569 7.12972 27.2006 8.04768 27.2006 9.20749V22.1302C27.2006 29.1633 21.1873 34.792 13.9584 34.792C6.72947 34.792 0.738892 29.1633 0.738892 22.1302V9.20749C0.738892 8.04493 1.68537 7.12972 2.84154 7.12972ZM48.3546 24.7027C48.0599 24.4361 47.9126 24.5186 47.4705 24.8017C46.5439 25.3706 45.4755 25.5547 44.4667 25.5547C41.9447 25.5547 39.8618 23.334 39.8618 20.7038C39.8618 18.0737 41.7548 15.9134 44.2769 15.9134C45.433 15.9134 46.3993 16.1388 47.326 16.7077C47.7255 16.9551 47.9126 17.076 48.2073 16.8094L49.9529 15.056C50.2873 14.7316 50.1399 14.487 49.8055 14.182C48.3575 12.7556 46.3172 12.3873 44.0898 12.3873C39.57 12.3873 35.7869 16.1388 35.7869 20.8083C35.7869 25.4777 39.757 29.3282 44.2769 29.3282C46.3172 29.3282 48.3575 28.7593 50.0577 27.3521C50.4346 27.0278 50.4771 26.7832 50.1824 26.4946L48.3546 24.7027ZM160.464 26.4534L158.928 24.9033C158.529 24.4746 158.339 24.5158 158.004 24.8017C157.228 25.4118 156.196 25.5547 155.122 25.5547C152.6 25.5547 150.71 23.5786 150.71 20.7038C150.71 17.8291 152.328 15.9134 154.85 15.9134C155.964 15.9134 156.93 16.1388 157.795 16.7489C158.234 17.032 158.489 17.0733 158.928 16.6665L160.274 15.2593C160.674 14.8718 160.569 14.586 160.232 14.2589C158.826 12.8518 156.976 12.3845 154.746 12.3845C150.226 12.3845 146.633 15.6688 146.633 20.8055C146.633 25.9422 150.418 29.3255 154.935 29.3255C156.93 29.3255 158.719 28.9379 160.379 27.4923C160.821 27.0636 160.864 26.8189 160.464 26.4534ZM69.8317 26.3105C69.0128 26.3105 68.0465 26.2088 68.0465 26.2088V22.0313H70.5288C72.3141 22.0313 72.9035 23.1114 72.9035 24.2932C72.9035 25.5987 72.2093 26.3105 69.8346 26.3105M68.0493 15.4847C68.0493 15.4847 68.7832 15.405 69.2678 15.405C71.5377 15.405 72.3141 15.9134 72.3141 17.2821C72.3141 18.4007 71.9146 19.3379 70.5288 19.3379H68.0465V15.4847H68.0493ZM74.6916 20.7038C75.6155 20.1542 76.0972 18.6865 76.0972 17.3206V16.8534C76.0972 13.3685 73.2408 12.3296 68.9306 12.3296C67.6469 12.3296 66.0487 12.39 65.3771 12.5302C64.4504 12.6731 64.1557 13.0002 64.1557 13.9786V27.7177C64.1557 28.7181 64.4504 29.0451 65.3771 29.1853C66.2584 29.3255 68.0465 29.3694 69.537 29.3694C73.4675 29.3694 76.6809 28.4295 76.6809 24.4773V24.1503C76.6809 22.6414 75.9045 21.2782 74.686 20.7066M102.049 19.9123V15.7733C102.239 15.6716 103.27 15.5891 103.46 15.5891C105.353 15.5891 106.421 16.202 106.421 17.8923C106.421 20.3411 103.755 20.0525 102.049 19.9123ZM107.433 22.3556C109.133 21.663 110.397 20.2366 110.397 17.7493C110.397 13.6515 107.348 12.3268 103.46 12.3268C101.947 12.3268 100.263 12.4285 99.2774 12.6099C98.6058 12.7143 98.3111 12.9974 98.3111 13.7505V28.7153C98.3111 28.9379 98.5208 29.1825 98.7106 29.1825H101.675C101.947 29.1825 102.159 28.9379 102.159 28.7153V23.1087C102.159 23.1087 103.083 23.2103 103.65 23.1087L106.657 28.7153C106.761 28.8995 106.951 29.1825 107.348 29.1825H110.587C110.839 29.1825 111.134 28.9984 110.944 28.6109L107.436 22.3529L107.433 22.3556ZM142.28 25.7004H135.53V22.2539H141.061C141.251 22.2539 141.546 22.0313 141.546 21.7427V19.522C141.546 19.3379 141.251 19.0768 141.061 19.0768H135.53V15.7733H141.792C142.087 15.7733 142.277 15.4874 142.277 15.3033V13.0002C142.277 12.7556 142.084 12.5302 141.792 12.5302H132.126C131.854 12.5302 131.642 12.7556 131.642 13.0002V28.7181C131.642 28.9407 131.852 29.1853 132.126 29.1853H142.277C142.572 29.1853 142.762 28.9407 142.762 28.7181V26.2088C142.762 25.8845 142.572 25.7004 142.277 25.7004M126.408 12.5302H114.659C114.364 12.5302 114.279 12.7556 114.279 13.0002V15.4077C114.279 15.5891 114.364 15.8557 114.659 15.8557H118.652V28.7208C118.652 28.9434 118.839 29.188 119.071 29.188H122.035C122.222 29.188 122.52 28.9434 122.52 28.7208V15.8557H126.408C126.703 15.8557 126.893 15.5891 126.893 15.4077V13.0002C126.893 12.7556 126.703 12.5302 126.408 12.5302ZM92.4849 25.7004H85.698V22.2539H91.289C91.561 22.2539 91.7736 22.0313 91.7736 21.7427V19.522C91.7736 19.3379 91.5639 19.0768 91.289 19.0768H85.698V15.7733H91.9606C92.2553 15.7733 92.4849 15.4874 92.4849 15.3033V13.0002C92.4849 12.7556 92.2553 12.5302 91.9606 12.5302H82.3541C82.0198 12.5302 81.9121 12.7556 81.9121 13.0002V28.7181C81.9121 28.9407 82.0169 29.1853 82.3541 29.1853H92.4849C92.7796 29.1853 92.9694 28.9407 92.9694 28.7181V26.2088C92.9694 25.8845 92.7796 25.7004 92.4849 25.7004ZM57.8903 12.5302H54.8836C54.6938 12.5302 54.5067 12.7556 54.5067 13.0002V28.7181C54.5067 28.9407 54.6938 29.1853 54.8836 29.1853H57.8903C58.1821 29.1853 58.3947 28.9407 58.3947 28.7181V13.0002C58.3947 12.7556 58.1821 12.5302 57.8903 12.5302ZM4.46812 17.4635H23.6159V10.5734H4.46812V17.4635ZM4.46812 22.1495C4.46812 23.0674 4.59564 23.8232 4.82518 24.5955H23.2787C23.4657 23.8205 23.613 23.0674 23.613 22.1495V20.8055H4.46812V22.1495ZM14.0321 31.5874C17.4383 31.5874 20.3174 30.2434 21.9978 27.7974H6.08904C7.76946 30.2434 10.7109 31.5874 14.0321 31.5874Z" fill="#272343"/>
</g>
<defs>
<clipPath id="clip0_5_9">
<rect width="160" height="34" fill="white" transform="translate(0.738892 0.789246)"/>
</clipPath>
</defs>
</svg>
