<svg width="108" height="23" viewBox="0 0 108 23" fill="none" xmlns="http://www.w3.org/2000/svg">
<path d="M0.695562 22.1409V0.322748H5.30849V9.94278H5.59613L13.4477 0.322748H18.9768L10.8802 10.0919L19.0727 22.1409H13.5542L7.57767 13.1708L5.30849 15.9406V22.1409H0.695562ZM24.213 0.322748V8.6111H20.9743V0.322748H24.213ZM29.0363 22.1409H24.0931L31.6251 0.322748H37.5697L45.091 22.1409H40.1478L34.6826 5.30854H34.5121L29.0363 22.1409ZM28.7273 13.5649H40.4035V17.1658H28.7273V13.5649ZM65.9663 0.322748V22.1409H61.982L52.4898 8.40869H52.33V22.1409H47.717V0.322748H51.7653L61.183 14.0443H61.3747V0.322748H65.9663ZM68.9466 4.12601V0.322748H86.8657V4.12601H80.186V22.1409H75.6263V4.12601H68.9466ZM103.293 0.322748H107.906V14.4918C107.906 16.0827 107.526 17.4747 106.766 18.6679C106.013 19.8611 104.959 20.7915 103.602 21.4591C102.246 22.1196 100.665 22.4499 98.8614 22.4499C97.0503 22.4499 95.4665 22.1196 94.11 21.4591C92.7534 20.7915 91.6988 19.8611 90.9459 18.6679C90.1931 17.4747 89.8167 16.0827 89.8167 14.4918V0.322748H94.4296V14.0976C94.4296 14.9286 94.6107 15.6672 94.9729 16.3135C95.3422 16.9598 95.8607 17.4676 96.5283 17.837C97.1959 18.2063 97.9736 18.3909 98.8614 18.3909C99.7563 18.3909 100.534 18.2063 101.194 17.837C101.862 17.4676 102.377 16.9598 102.739 16.3135C103.109 15.6672 103.293 14.9286 103.293 14.0976V0.322748Z" fill="#272343"/>
</svg>
